<?xml version="1.0" encoding="utf-8"?>
<!-- Generator: Adobe Illustrator 28.1.0, SVG Export Plug-In . SVG Version: 6.00 Build 0)  -->
<svg version="1.1" id="Layer_1" xmlns="http://www.w3.org/2000/svg" xmlns:xlink="http://www.w3.org/1999/xlink" x="0px" y="0px"
	 viewBox="0 0 140.29 120.5" style="enable-background:new 0 0 140.29 120.5;" xml:space="preserve">
<style type="text/css">
	.st0{fill:#FFFFFF;}
</style>
<g>
	<path class="st0" d="M90.94,71.54c4.23,3.27,8.16,6.32,12.11,9.34c10.58,8.09,21.18,16.15,31.77,24.24
		c1.19,0.91,2.41,1.81,3.43,2.89c2.42,2.58,2.7,6.41,0.81,9.2c-1.98,2.92-6,4.14-9.3,2.64c-1.34-0.61-2.54-1.58-3.72-2.48
		c-13.38-10.18-26.74-20.39-40.12-30.58c-1.31-1-2.67-1.93-4.35-3.14c-12.19,10.5-26.21,14.87-42.13,12.06
		c-11.25-1.99-20.59-7.5-27.96-16.17C-3.37,62.09-3.83,37,10.21,18.65C23.79,0.9,48.85-5.13,69.12,4.7
		c12.43,6.03,20.96,15.71,25.23,28.89C98.57,46.58,96.94,59.21,90.94,71.54z M87.85,48.55C87.94,26.7,70.61,8.99,48.84,8.69
		C27.04,8.39,8.83,26.24,8.69,48.05C8.55,69.66,26.16,87.59,47.83,87.9C69.73,88.21,87.76,70.48,87.85,48.55z"/>
</g>
</svg>
