<?xml version="1.0" encoding="utf-8"?>
<!-- Generator: Adobe Illustrator 28.1.0, SVG Export Plug-In . SVG Version: 6.00 Build 0)  -->
<svg version="1.1" id="Layer_1" xmlns="http://www.w3.org/2000/svg" xmlns:xlink="http://www.w3.org/1999/xlink" x="0px" y="0px"
	 viewBox="0 0 1920 1080" style="enable-background:new 0 0 1920 1080;" xml:space="preserve">
<style type="text/css">
	.st0{fill:#0E8388;}
	.st1{fill:#FFFFFF;}
</style>
<g>
	<g>
		<path class="st0" d="M390.94,284c0.67,0,1.33,0,2,0c1.75,0.25,3.49,0.68,5.24,0.71c22.92,0.37,45.37,3.92,67.26,10.6
			c42.86,13.08,79.88,35.82,110.89,68.27c23.17,24.24,40.86,52,53.1,83.23c12.74,32.51,18.33,66.27,17.31,101.17
			c-0.66,22.6-4.19,44.74-10.78,66.34c-9.93,32.57-25.72,62.01-47.37,88.29c-19.9,24.16-43.41,44.05-70.59,59.47
			c-37.76,21.43-78.35,32.67-121.82,33.21c-1.09,0.01-2.17,0.46-3.25,0.71c-0.67,0-1.33,0-2,0c-3.09-0.27-6.17-0.66-9.27-0.78
			c-43.59-1.78-84.14-13.87-121.47-36.46c-37.95-22.96-67.98-53.82-89.91-92.39c-21.49-37.79-32.64-78.52-33.18-122.08
			c-0.01-1.1-0.46-2.19-0.71-3.28c0-0.67,0-1.33,0-2c0.25-1.43,0.69-2.85,0.71-4.28c0.18-17.73,2.35-35.23,6.4-52.47
			c11.9-50.74,36.74-94.18,74.98-129.43c47.55-43.84,103.89-66.67,168.68-68.1C388.43,284.69,389.68,284.25,390.94,284z
			 M257.84,562.13c-0.54,5.09-1.32,9.54-1.42,14c-0.42,18.01,5.37,34.05,16.08,48.35c14.1,18.83,32.97,31.22,54.55,39.76
			c22.09,8.74,45.07,12.4,68.8,11.94c23.05-0.45,45.23-4.8,66.41-13.95c18.91-8.18,35.56-19.52,48.4-35.89
			c12.96-16.53,19.25-35.17,17.02-56.34c-0.28-2.63-0.73-5.23-1.15-8.16c9.01-5.03,15.38-12.23,17.58-22.47
			c2.21-10.31,0.14-19.82-5.99-28.44c-9.43-13.26-32.23-20.17-51.34-3.9c-9.5-4.73-18.59-10.02-28.25-13.86
			c-9.53-3.79-19.5-6.73-29.52-8.9c-10.09-2.19-20.49-2.98-30.96-4.41c5.99-26.74,11.71-53.33,17.84-80.04
			c19.27,4.36,37.87,8.56,56.74,12.83c0.5,6.93,2.63,12.96,7.46,17.75c4.95,4.91,10.89,7.54,17.88,7.58
			c11.47,0.07,21.8-7.83,24.72-18.86c3.05-11.51-1.95-23.45-12.13-29.1c-5.14-2.85-10.64-3.85-16.38-2.94
			c-8.6,1.37-14.68,6.54-19.02,13.81c-12.73-2.84-25.05-5.58-37.36-8.33c-7.79-1.74-15.56-3.51-23.36-5.22
			c-5.75-1.26-8.09,0.19-9.49,5.78c-0.12,0.48-0.18,0.98-0.29,1.47c-5.62,25.52-11.24,51.04-16.88,76.56
			c-0.67,3.05-1.46,6.08-2.16,8.97c-52.78,7.31-49.31,7.35-87.88,27.39c-18.55-16.6-42.88-10.42-52.64,4.3
			c-5.32,8.02-7.29,16.78-5.62,26.19C241.45,549.09,248.14,556.84,257.84,562.13z"/>
		<path class="st1" d="M257.84,562.13c-9.7-5.29-16.39-13.04-18.36-24.13c-1.67-9.41,0.3-18.17,5.62-26.19
			c9.77-14.72,34.09-20.9,52.64-4.3c38.57-20.04,35.1-20.08,87.88-27.39c0.7-2.89,1.49-5.91,2.16-8.97
			c5.64-25.52,11.26-51.04,16.88-76.56c0.11-0.49,0.16-0.99,0.29-1.47c1.4-5.6,3.74-7.05,9.49-5.78c7.79,1.71,15.57,3.48,23.36,5.22
			c12.32,2.75,24.63,5.49,37.36,8.33c4.34-7.27,10.41-12.44,19.02-13.81c5.74-0.91,11.24,0.09,16.38,2.94
			c10.18,5.65,15.18,17.59,12.13,29.1c-2.92,11.03-13.25,18.93-24.72,18.86c-7-0.04-12.94-2.67-17.88-7.58
			c-4.83-4.79-6.96-10.82-7.46-17.75c-18.86-4.27-37.46-8.47-56.74-12.83c-6.14,26.71-11.85,53.3-17.84,80.04
			c10.47,1.43,20.87,2.22,30.96,4.41c10.02,2.17,20,5.11,29.52,8.9c9.66,3.84,18.75,9.12,28.25,13.86
			c19.11-16.27,41.91-9.36,51.34,3.9c6.13,8.62,8.2,18.13,5.99,28.44c-2.19,10.24-8.57,17.44-17.58,22.47
			c0.42,2.93,0.88,5.54,1.15,8.16c2.22,21.17-4.06,39.81-17.02,56.34c-12.84,16.38-29.49,27.72-48.4,35.89
			c-21.18,9.16-43.36,13.51-66.41,13.95c-23.73,0.46-46.71-3.2-68.8-11.94c-21.57-8.54-40.44-20.93-54.55-39.76
			c-10.71-14.3-16.5-30.34-16.08-48.35C256.52,571.67,257.3,567.22,257.84,562.13z M422.8,565.74
			c0.03,14.13,11.25,25.25,25.41,25.18c13.99-0.06,25.41-11.47,25.42-25.39c0.01-13.87-11.49-25.44-25.36-25.53
			C434.04,539.91,422.77,551.3,422.8,565.74z M361.05,565.48c-0.04-14.12-11.21-25.4-25.23-25.47
			c-13.99-0.07-25.73,11.77-25.57,25.81c0.15,13.91,11.62,25.13,25.68,25.11C350,590.91,361.09,579.68,361.05,565.48z
			 M392.77,643.94c3.66-0.27,8.15-0.47,12.6-0.96c11.14-1.23,22.04-3.53,31.96-8.98c3.89-2.14,7.5-4.9,10.94-7.74
			c2.46-2.03,2.71-4.72,1.48-7.23c-1.86-3.78-6.4-4.51-10.11-1.31c-6.21,5.38-13.51,8.41-21.33,10.35
			c-14.72,3.66-29.63,4.03-44.55,1.69c-10.93-1.72-21.41-4.74-30-12.39c-2.88-2.56-6.7-2.15-8.88,0.46
			c-2.25,2.69-2.06,6.19,1.09,8.8c3.3,2.74,6.81,5.38,10.58,7.39C360.73,641.56,376.23,643.27,392.77,643.94z"/>
		<path class="st0" d="M422.8,565.74c-0.03-14.44,11.24-25.83,25.47-25.74c13.87,0.09,25.36,11.66,25.36,25.53
			c-0.01,13.92-11.43,25.33-25.42,25.39C434.05,590.99,422.83,579.87,422.8,565.74z"/>
		<path class="st0" d="M361.05,565.48c0.04,14.2-11.05,25.43-25.13,25.45c-14.05,0.02-25.52-11.2-25.68-25.11
			c-0.15-14.04,11.58-25.89,25.57-25.81C349.84,540.08,361.01,551.35,361.05,565.48z"/>
		<path class="st0" d="M392.77,643.94c-16.54-0.67-32.04-2.38-46.21-9.92c-3.78-2.01-7.28-4.65-10.58-7.39
			c-3.15-2.61-3.34-6.1-1.09-8.8c2.18-2.61,6.01-3.02,8.88-0.46c8.59,7.65,19.07,10.68,30,12.39c14.92,2.34,29.82,1.97,44.55-1.69
			c7.82-1.94,15.11-4.97,21.33-10.35c3.7-3.21,8.25-2.47,10.11,1.31c1.24,2.52,0.98,5.2-1.48,7.23c-3.44,2.84-7.05,5.6-10.94,7.74
			c-9.92,5.45-20.82,7.75-31.96,8.98C400.92,643.47,396.44,643.67,392.77,643.94z"/>
	</g>
	<g>
		<path class="st0" d="M791.89,478.07c8.16,0,16.16,1.15,24.02,3.43c7.86,2.29,14.67,5.72,20.44,10.3
			c5.97-3.98,12.68-7.26,20.14-9.85c7.46-2.58,16.46-3.88,27.01-3.88c7.56,0,14.97,1,22.23,2.98c7.26,1.99,13.73,5.12,19.4,9.4
			c5.67,4.28,10.19,9.95,13.58,17.01c3.38,7.06,5.07,15.67,5.07,25.82v94.01c-1.99,0.6-5.12,1.19-9.4,1.79
			c-4.28,0.6-8.71,0.89-13.28,0.89c-4.38,0-8.31-0.3-11.79-0.89c-3.48-0.6-6.42-1.79-8.8-3.58c-2.39-1.79-4.23-4.22-5.52-7.31
			c-1.3-3.08-1.94-7.11-1.94-12.09v-71.33c0-5.97-1.69-10.3-5.07-12.98c-3.38-2.69-7.96-4.03-13.73-4.03
			c-2.79,0-5.77,0.65-8.95,1.94c-3.18,1.3-5.57,2.64-7.16,4.03c0.2,0.8,0.3,1.54,0.3,2.24c0,0.7,0,1.34,0,1.94v99.38
			c-2.19,0.6-5.42,1.19-9.7,1.79c-4.28,0.6-8.61,0.89-12.98,0.89c-4.38,0-8.31-0.3-11.79-0.89c-3.48-0.6-6.42-1.79-8.8-3.58
			s-4.23-4.22-5.52-7.31c-1.3-3.08-1.94-7.11-1.94-12.09v-71.33c0-5.97-1.84-10.3-5.52-12.98c-3.68-2.69-8.11-4.03-13.28-4.03
			c-3.58,0-6.67,0.55-9.25,1.64c-2.59,1.1-4.77,2.14-6.57,3.13v104.75c-1.99,0.6-5.12,1.19-9.4,1.79c-4.28,0.6-8.71,0.89-13.28,0.89
			c-4.38,0-8.31-0.3-11.79-0.89c-3.48-0.6-6.42-1.79-8.8-3.58c-2.39-1.79-4.23-4.22-5.52-7.31c-1.3-3.08-1.94-7.11-1.94-12.09
			v-90.13c0-5.37,1.14-9.65,3.43-12.83c2.29-3.18,5.42-6.16,9.4-8.95c6.76-4.78,15.17-8.65,25.22-11.64
			C770.45,479.57,780.94,478.07,791.89,478.07z"/>
		<path class="st0" d="M973.64,442.26c0-7.56,2.54-13.92,7.61-19.1c5.07-5.17,11.79-7.76,20.14-7.76s15.07,2.59,20.14,7.76
			c5.07,5.18,7.61,11.54,7.61,19.1c0,7.56-2.54,13.93-7.61,19.1c-5.07,5.18-11.79,7.76-20.14,7.76s-15.07-2.58-20.14-7.76
			C976.17,456.19,973.64,449.82,973.64,442.26z M1026.76,627.29c-2.19,0.4-5.42,0.94-9.7,1.64c-4.28,0.7-8.61,1.04-12.98,1.04
			c-4.38,0-8.31-0.3-11.79-0.89c-3.48-0.6-6.42-1.79-8.8-3.58s-4.23-4.22-5.52-7.31c-1.3-3.08-1.94-7.11-1.94-12.09V484.64
			c2.19-0.4,5.42-0.94,9.7-1.64c4.28-0.69,8.6-1.04,12.98-1.04c4.37,0,8.3,0.3,11.79,0.9c3.48,0.6,6.42,1.79,8.8,3.58
			c2.39,1.79,4.22,4.23,5.52,7.31c1.29,3.09,1.94,7.12,1.94,12.09V627.29z"/>
		<path class="st0" d="M1150.91,535.67c0-6.16-1.74-10.69-5.22-13.58c-3.48-2.88-8.21-4.33-14.18-4.33c-3.98,0-7.91,0.5-11.79,1.49
			c-3.88,1-7.21,2.49-10,4.48v103.56c-1.99,0.6-5.12,1.19-9.4,1.79c-4.28,0.6-8.71,0.89-13.28,0.89c-4.38,0-8.31-0.3-11.79-0.89
			c-3.48-0.6-6.42-1.79-8.8-3.58c-2.39-1.79-4.23-4.22-5.52-7.31c-1.3-3.08-1.94-7.11-1.94-12.09v-89.53
			c0-5.37,1.14-9.75,3.43-13.13c2.29-3.38,5.42-6.46,9.4-9.25c6.76-4.78,15.27-8.65,25.52-11.64c10.25-2.98,21.64-4.48,34.17-4.48
			c22.48,0,39.79,4.92,51.93,14.77c12.13,9.85,18.21,23.53,18.21,41.04v93.41c-1.99,0.6-5.12,1.19-9.4,1.79
			c-4.28,0.6-8.71,0.89-13.28,0.89c-4.38,0-8.31-0.3-11.79-0.89c-3.48-0.6-6.42-1.79-8.8-3.58s-4.23-4.22-5.52-7.31
			c-1.3-3.08-1.94-7.11-1.94-12.09V535.67z"/>
		<path class="st0" d="M1231.78,442.26c0-7.56,2.54-13.92,7.61-19.1c5.07-5.17,11.79-7.76,20.14-7.76s15.07,2.59,20.14,7.76
			c5.07,5.18,7.61,11.54,7.61,19.1c0,7.56-2.54,13.93-7.61,19.1c-5.07,5.18-11.79,7.76-20.14,7.76s-15.07-2.58-20.14-7.76
			C1234.32,456.19,1231.78,449.82,1231.78,442.26z M1284.91,627.29c-2.19,0.4-5.42,0.94-9.7,1.64c-4.28,0.7-8.61,1.04-12.98,1.04
			c-4.38,0-8.31-0.3-11.79-0.89c-3.48-0.6-6.42-1.79-8.8-3.58s-4.23-4.22-5.52-7.31c-1.3-3.08-1.94-7.11-1.94-12.09V484.64
			c2.19-0.4,5.42-0.94,9.7-1.64c4.28-0.69,8.6-1.04,12.98-1.04c4.37,0,8.3,0.3,11.79,0.9c3.48,0.6,6.42,1.79,8.8,3.58
			c2.39,1.79,4.22,4.23,5.52,7.31c1.29,3.09,1.94,7.12,1.94,12.09V627.29z"/>
		<path class="st0" d="M1386.67,478.07c8.16,0,16.16,1.15,24.02,3.43c7.86,2.29,14.67,5.72,20.44,10.3
			c5.97-3.98,12.68-7.26,20.14-9.85c7.46-2.58,16.46-3.88,27.01-3.88c7.56,0,14.97,1,22.23,2.98c7.26,1.99,13.73,5.12,19.4,9.4
			c5.67,4.28,10.19,9.95,13.58,17.01c3.38,7.06,5.07,15.67,5.07,25.82v94.01c-1.99,0.6-5.12,1.19-9.4,1.79
			c-4.28,0.6-8.71,0.89-13.28,0.89c-4.38,0-8.31-0.3-11.79-0.89c-3.48-0.6-6.42-1.79-8.8-3.58c-2.39-1.79-4.23-4.22-5.52-7.31
			c-1.3-3.08-1.94-7.11-1.94-12.09v-71.33c0-5.97-1.69-10.3-5.07-12.98c-3.38-2.69-7.96-4.03-13.73-4.03
			c-2.79,0-5.77,0.65-8.95,1.94c-3.18,1.3-5.57,2.64-7.16,4.03c0.2,0.8,0.3,1.54,0.3,2.24c0,0.7,0,1.34,0,1.94v99.38
			c-2.19,0.6-5.42,1.19-9.7,1.79c-4.28,0.6-8.61,0.89-12.98,0.89c-4.38,0-8.31-0.3-11.79-0.89c-3.48-0.6-6.42-1.79-8.8-3.58
			s-4.23-4.22-5.52-7.31c-1.3-3.08-1.94-7.11-1.94-12.09v-71.33c0-5.97-1.84-10.3-5.52-12.98c-3.68-2.69-8.11-4.03-13.28-4.03
			c-3.58,0-6.67,0.55-9.25,1.64c-2.59,1.1-4.77,2.14-6.57,3.13v104.75c-1.99,0.6-5.12,1.19-9.4,1.79c-4.28,0.6-8.71,0.89-13.28,0.89
			c-4.38,0-8.31-0.3-11.79-0.89c-3.48-0.6-6.42-1.79-8.8-3.58c-2.39-1.79-4.23-4.22-5.52-7.31c-1.3-3.08-1.94-7.11-1.94-12.09
			v-90.13c0-5.37,1.14-9.65,3.43-12.83c2.29-3.18,5.42-6.16,9.4-8.95c6.76-4.78,15.17-8.65,25.22-11.64
			C1365.23,479.57,1375.73,478.07,1386.67,478.07z"/>
		<path class="st0" d="M1629.3,478.07c10.74,0,20.54,1.1,29.4,3.28c8.85,2.19,16.41,5.52,22.68,10
			c6.27,4.48,11.09,10.15,14.47,17.01c3.38,6.86,5.07,14.97,5.07,24.32v66.85c0,5.18-1.45,9.4-4.33,12.68
			c-2.89,3.28-6.32,6.12-10.3,8.5c-12.94,7.76-31.14,11.64-54.61,11.64c-10.55,0-20.05-1-28.5-2.98
			c-8.46-1.99-15.72-4.97-21.79-8.95c-6.07-3.98-10.74-9.05-14.03-15.22c-3.28-6.17-4.92-13.33-4.92-21.49
			c0-13.73,4.08-24.27,12.24-31.63c8.16-7.36,20.79-11.94,37.9-13.73l39.1-4.18v-2.09c0-5.77-2.54-9.9-7.61-12.39
			c-5.07-2.49-12.38-3.73-21.93-3.73c-7.56,0-14.92,0.8-22.08,2.39c-7.16,1.6-13.63,3.58-19.4,5.97c-2.59-1.79-4.78-4.52-6.57-8.21
			c-1.79-3.68-2.69-7.51-2.69-11.49c0-5.17,1.24-9.3,3.73-12.39c2.49-3.08,6.31-5.72,11.49-7.91c5.77-2.19,12.58-3.78,20.44-4.77
			C1614.93,478.57,1622.34,478.07,1629.3,478.07z M1631.69,595.36c3.38,0,7.11-0.34,11.19-1.04c4.08-0.69,7.11-1.64,9.1-2.83v-23.88
			l-21.49,1.79c-5.57,0.4-10.15,1.59-13.73,3.58c-3.58,1.99-5.37,4.98-5.37,8.95c0,3.98,1.54,7.21,4.63,9.7
			C1619.11,594.12,1624.33,595.36,1631.69,595.36z"/>
		<path class="st0" d="M1783.6,627.29c-2.19,0.4-5.42,0.94-9.7,1.64c-4.28,0.7-8.61,1.04-12.98,1.04c-4.38,0-8.31-0.3-11.79-0.89
			c-3.48-0.6-6.42-1.79-8.8-3.58s-4.23-4.22-5.52-7.31c-1.3-3.08-1.94-7.11-1.94-12.09v-173.1c2.19-0.4,5.42-0.94,9.7-1.64
			c4.28-0.69,8.6-1.04,12.98-1.04c4.37,0,8.3,0.3,11.79,0.9c3.48,0.6,6.42,1.79,8.8,3.58c2.39,1.79,4.22,4.23,5.52,7.31
			c1.29,3.09,1.94,7.12,1.94,12.09V627.29z"/>
	</g>
</g>
</svg>
